<svg id="_06.03_WhatsNew_09_Deployment_AWS.svg" data-name="06.03_WhatsNew_09_Deployment_AWS.svg" xmlns="http://www.w3.org/2000/svg" width="247.88" height="96.22" viewBox="0 0 247.88 96.22">
  <defs>
    <style>
      .cls-1 {
        fill: #f90;
      }

      .cls-1, .cls-2 {
        fill-rule: evenodd;
      }
    </style>
  </defs>
  <path id="AWS" class="cls-1" d="M2991.92,9702.64l-14.57-5.27v-21.5l14.57,5v21.77Zm2.67,0,14.57-5.27v-21.5l-14.57,5v21.77Zm-15.74-28.38,14.74-4.18,13.68,4.44-13.68,4.67Zm-4.28-1.67-14.57-5.26v-21.5l14.57,5v21.76Zm2.67,0,14.58-5.26v-21.5l-14.58,5v21.76Zm-15.74-28.37,14.74-4.18,13.68,4.44-13.68,4.67Zm47.07,28.37-14.57-5.26v-21.5l14.57,5v21.76Zm2.68,0,14.57-5.26v-21.5l-14.57,5v21.76Zm-15.75-28.37,14.75-4.18,13.67,4.44-13.67,4.67Zm30.42-1.67-14.57-5.26v-21.5l14.57,5v21.76Zm2.67,0,14.58-5.26v-21.5l-14.58,5v21.76Zm-15.74-28.37,14.74-4.18,13.68,4.44-13.68,4.67Zm47.07,28.37-14.57-5.26v-21.5l14.57,5v21.76Zm2.67,0,14.58-5.26v-21.5l-14.58,5v21.76Zm-15.74-28.37,14.75-4.18,13.67,4.44-13.67,4.67Z" transform="translate(-2960 -9610)"/>
  <path id="AWS-2" data-name="AWS" class="cls-2" d="M3052.51,9688.63l-4.89,17.12h-2.13l-3.81-12.72-3.5,12.72h-2.17l-5.08-17.12h2.63l3.7,12.76,3.53-12.76h1.94l3.83,12.8,3.81-12.8h2.14Zm13.54,12.01,2.46,0.51a6.894,6.894,0,0,1-2.62,3.63,7.515,7.515,0,0,1-4.59,1.44,7.119,7.119,0,0,1-5.63-2.47,10.842,10.842,0,0,1,.09-13.08,7.183,7.183,0,0,1,5.61-2.52,6.791,6.791,0,0,1,5.36,2.32c1.35,1.55,2.04,3.86,2.07,6.95h-12.34c0,2.58.54,4.33,1.61,5.23a5.206,5.206,0,0,0,3.41,1.36A4.658,4.658,0,0,0,3066.05,9700.64Zm-0.14-5.21a7.729,7.729,0,0,0-.47-2.56,4.447,4.447,0,0,0-1.48-1.9,4.022,4.022,0,0,0-2.51-.79,4.431,4.431,0,0,0-3.33,1.42,5.989,5.989,0,0,0-1.54,3.83h9.33Zm7.65,10.32h-1.28v-23.12h2.65v8.85q1.815-3.33,5.01-3.33a6.182,6.182,0,0,1,4.89,2.33q1.965,2.325,1.97,6.75a10.347,10.347,0,0,1-1.94,6.41,6.035,6.035,0,0,1-5.05,2.58,5.8,5.8,0,0,1-5.31-3.3Zm1.37-6.71a5.239,5.239,0,0,0,1.61,3.82,4.586,4.586,0,0,0,3,1.19,3.805,3.805,0,0,0,3.25-1.76,8.266,8.266,0,0,0,1.24-4.83,9.74,9.74,0,0,0-1.19-5.2,3.742,3.742,0,0,0-3.32-1.9,4.125,4.125,0,0,0-3,1.35,5.759,5.759,0,0,0-1.59,3.48v3.85Zm18.62,2.27,2.53-.53c0.56,2.16,2.33,3.23,5.32,3.23a5.1,5.1,0,0,0,2.8-.74,2.377,2.377,0,0,0,1.14-2.1q0-2.01-2.91-2.55l-3.59-.69a6.5,6.5,0,0,1-3.34-1.59,4.142,4.142,0,0,1-1.25-3.14,4.565,4.565,0,0,1,1.7-3.6,6.852,6.852,0,0,1,4.58-1.45c3.68,0,5.96,1.45,6.82,4.36l-2.42.52a4.135,4.135,0,0,0-4.29-2.67,4.83,4.83,0,0,0-2.64.67,2.114,2.114,0,0,0-1.04,1.86c0,1.26.88,2.05,2.65,2.38l3.31,0.61q5.19,0.96,5.19,5.08a4.543,4.543,0,0,1-1.93,3.81,8.368,8.368,0,0,1-5.15,1.45Q3094.985,9706.22,3093.55,9701.31Zm28.65-.67,2.47,0.51a6.912,6.912,0,0,1-2.63,3.63,7.464,7.464,0,0,1-4.58,1.44,7.091,7.091,0,0,1-5.63-2.47,9.45,9.45,0,0,1-2.15-6.47,9.584,9.584,0,0,1,2.23-6.61,7.189,7.189,0,0,1,5.62-2.52,6.785,6.785,0,0,1,5.35,2.32c1.35,1.55,2.04,3.86,2.07,6.95h-12.34c0,2.58.54,4.33,1.61,5.23a5.226,5.226,0,0,0,3.41,1.36A4.649,4.649,0,0,0,3122.2,9700.64Zm-0.14-5.21a7.483,7.483,0,0,0-.47-2.56,4.372,4.372,0,0,0-1.48-1.9,3.993,3.993,0,0,0-2.5-.79,4.468,4.468,0,0,0-3.34,1.42,5.93,5.93,0,0,0-1.53,3.83h9.32Zm8.39,10.32h-2.65v-17.12h2.32v3.99a8.527,8.527,0,0,1,2.47-3.64,4.511,4.511,0,0,1,2.53-.83c0.27,0,.62.02,1.04,0.06v2.55h-0.53a4.626,4.626,0,0,0-3.63,1.63,6.62,6.62,0,0,0-1.55,4.29v9.07Zm22.17-17.12-5.87,17.12H3144l-6.07-17.12h2.93l4.72,13.91,4.69-13.91h2.35Zm4.95-6v2.96h-2.84v-2.96h2.84Zm-0.06,6v17.12h-2.65v-17.12h2.65Zm13.84,11.12,2.38,0.42a7.668,7.668,0,0,1-2.24,4.45,6.732,6.732,0,0,1-9.68-1.01,10.775,10.775,0,0,1-1.84-6.38,10.551,10.551,0,0,1,1.94-6.49,6.259,6.259,0,0,1,5.29-2.59,6.01,6.01,0,0,1,4.45,1.68,7.472,7.472,0,0,1,2.08,4.32l-2.38.45c-0.45-2.82-1.81-4.24-4.07-4.24a3.74,3.74,0,0,0-3.36,1.88,8.91,8.91,0,0,0-1.18,4.85,9.39,9.39,0,0,0,1.17,5.1,3.7,3.7,0,0,0,3.28,1.82C3169.38,9704.01,3170.76,9702.59,3171.35,9699.75Zm17.32,0.89,2.46,0.51a6.948,6.948,0,0,1-2.62,3.63,7.515,7.515,0,0,1-4.59,1.44,7.105,7.105,0,0,1-5.63-2.47,10.842,10.842,0,0,1,.09-13.08,7.183,7.183,0,0,1,5.61-2.52,6.77,6.77,0,0,1,5.35,2.32c1.35,1.55,2.05,3.86,2.08,6.95h-12.34c0,2.58.53,4.33,1.61,5.23a5.187,5.187,0,0,0,3.41,1.36Q3187.34,9704.01,3188.67,9700.64Zm-0.15-5.21a7.483,7.483,0,0,0-.47-2.56,4.348,4.348,0,0,0-1.47-1.9,4.022,4.022,0,0,0-2.51-.79,4.431,4.431,0,0,0-3.33,1.42,5.885,5.885,0,0,0-1.54,3.83h9.32Zm4.4,5.88,2.52-.53c0.56,2.16,2.34,3.23,5.32,3.23a5.1,5.1,0,0,0,2.8-.74,2.377,2.377,0,0,0,1.14-2.1q0-2.01-2.91-2.55l-3.58-.69a6.492,6.492,0,0,1-3.35-1.59,4.142,4.142,0,0,1-1.25-3.14,4.565,4.565,0,0,1,1.7-3.6,6.852,6.852,0,0,1,4.58-1.45c3.69,0,5.96,1.45,6.83,4.36l-2.43.52a4.13,4.13,0,0,0-4.28-2.67,4.842,4.842,0,0,0-2.65.67,2.114,2.114,0,0,0-1.04,1.86c0,1.26.89,2.05,2.65,2.38l3.31,0.61c3.46,0.64,5.2,2.33,5.2,5.08a4.552,4.552,0,0,1-1.94,3.81,8.368,8.368,0,0,1-5.15,1.45Q3194.345,9706.22,3192.92,9701.31Zm-59.72-49.27v-4.11a1.023,1.023,0,0,1,1.04-1.05h18.31a1.023,1.023,0,0,1,1.05,1.04v3.53c0,0.59-.5,1.36-1.38,2.59l-9.48,13.63a20.112,20.112,0,0,1,10.44,2.25,1.882,1.882,0,0,1,.97,1.61v4.39a0.977,0.977,0,0,1-1.34.94,20.985,20.985,0,0,0-19.35.03,0.966,0.966,0,0,1-1.3-.95v-4.17a4.986,4.986,0,0,1,.68-2.83l10.99-15.87h-9.57A1.029,1.029,0,0,1,3133.2,9652.04Zm-65.51,25.68h-5.57a1.045,1.045,0,0,1-1-.95V9648a1.061,1.061,0,0,1,1.08-1.04h5.19a1.056,1.056,0,0,1,1.01.96v3.76h0.1c1.36-3.63,3.9-5.33,7.33-5.33,3.49,0,5.67,1.7,7.23,5.33a8.2,8.2,0,0,1,14.14-2.18c1.77,2.42,1.41,5.94,1.41,9.03l-0.01,18.16a1.05,1.05,0,0,1-1.07,1.03h-5.57a1.042,1.042,0,0,1-1-1.03v-15.26a37.1,37.1,0,0,0-.15-5.39c-0.42-1.94-1.67-2.48-3.28-2.48a3.711,3.711,0,0,0-3.33,2.36,17.6,17.6,0,0,0-.52,5.51v15.26a1.05,1.05,0,0,1-1.07,1.03h-5.56a1.042,1.042,0,0,1-1-1.03l-0.01-15.26c0-3.21.52-7.93-3.43-7.93-4,0-3.85,4.6-3.85,7.93v15.26A1.05,1.05,0,0,1,3067.69,9677.72Zm99.36-31.37c8.2,0,12.64,7.15,12.64,16.23,0,8.78-4.9,15.75-12.64,15.75-8.05,0-12.43-7.15-12.43-16.05C3154.62,9653.32,3159.06,9646.35,3167.05,9646.35Zm0.05,6.62c-4.07,0-4.33,5.63-4.33,9.14s-0.05,10.28,4.28,10.28c4.28,0,4.49-5.31,4.49-9.01a27.08,27.08,0,0,0-.83-7.63A3.463,3.463,0,0,0,3167.1,9652.97Zm24.45,24.75h-5.54a1.042,1.042,0,0,1-1-1.03L3185,9647.9a1.051,1.051,0,0,1,1.07-.94h5.16a1.051,1.051,0,0,1,.99.8v4.41h0.11c1.56-3.94,3.74-5.82,7.59-5.82a7.3,7.3,0,0,1,6.5,3.39c1.45,2.31,1.45,6.18,1.45,8.97v18.11a1.045,1.045,0,0,1-1.06.9h-5.59a1.048,1.048,0,0,1-.99-0.9v-15.63c0-3.15.36-7.75-3.48-7.75a3.667,3.667,0,0,0-3.23,2.3,12.868,12.868,0,0,0-.88,5.45v15.5A1.068,1.068,0,0,1,3191.55,9677.72Zm-72.31-13.74c0,2.18.05,4-1.04,5.95a4.542,4.542,0,0,1-3.86,2.55c-2.13,0-3.38-1.64-3.38-4.07,0-4.78,4.25-5.64,8.28-5.64v1.21Zm5.62,13.67a1.149,1.149,0,0,1-1.32.13,13.567,13.567,0,0,1-3.19-3.74c-3.06,3.14-5.23,4.08-9.19,4.08-4.68,0-8.33-2.91-8.33-8.74a9.515,9.515,0,0,1,5.94-9.16c3.02-1.34,7.24-1.58,10.47-1.95v-0.72c0-1.34.11-2.92-.68-4.07a3.706,3.706,0,0,0-3.12-1.46,4.246,4.246,0,0,0-4.48,3.37,1.19,1.19,0,0,1-.97,1.03l-5.4-.59a0.986,0.986,0,0,1-.83-1.17c1.24-6.59,7.16-8.59,12.46-8.59,2.71,0,6.25.73,8.39,2.8,2.71,2.55,2.45,5.94,2.45,9.65v8.73c0,2.63,1.08,3.78,2.1,5.2a1.071,1.071,0,0,1-.02,1.49c-1.14.96-3.16,2.73-4.27,3.72Zm-78-13.67c0,2.18.05,4-1.04,5.95a4.542,4.542,0,0,1-3.86,2.55c-2.13,0-3.38-1.64-3.38-4.07,0-4.78,4.25-5.64,8.28-5.64v1.21Zm5.62,13.67a1.15,1.15,0,0,1-1.32.13,13.567,13.567,0,0,1-3.19-3.74c-3.06,3.14-5.23,4.08-9.19,4.08-4.69,0-8.33-2.91-8.33-8.74a9.515,9.515,0,0,1,5.94-9.16c3.02-1.34,7.24-1.58,10.47-1.95v-0.72c0-1.34.1-2.92-.68-4.07a3.706,3.706,0,0,0-3.12-1.46,4.246,4.246,0,0,0-4.48,3.37,1.19,1.19,0,0,1-.97,1.03l-5.4-.59a0.986,0.986,0,0,1-.83-1.17c1.24-6.59,7.16-8.59,12.46-8.59,2.71,0,6.25.73,8.39,2.8,2.71,2.55,2.44,5.94,2.44,9.65v8.73c0,2.63,1.09,3.78,2.11,5.2a1.071,1.071,0,0,1-.02,1.49c-1.14.96-3.16,2.73-4.27,3.72Z" transform="translate(-2960 -9610)"/>
</svg>
